<svg width="354" height="77" viewBox="0 0 354 77" fill="none" xmlns="http://www.w3.org/2000/svg">
<path d="M97.1093 34.7238H101.865L100.948 30.9118V24.3483H108.927C115.918 24.3483 118.955 21.4821 118.955 15.6494C118.955 9.81669 115.932 6.9505 109.171 6.9505H97.052L97.6393 10.7625V30.8545L97.1093 34.7238ZM100.905 9.34378H108.813C113.655 9.34378 115.746 11.3931 115.746 15.7354C115.746 20.0776 113.569 21.9693 108.512 21.9693H100.905V9.34378Z" fill="#AB9066"/>
<path d="M127.536 6.89316H123.152L123.74 10.6909V30.8544L123.152 34.6521H127.536L126.991 30.8544V10.6909L127.536 6.89316Z" fill="#AB9066"/>
<path d="M133.094 34.6521H153.45L153.951 31.399L150.098 32.2732H136.89V21.568H146.674L149.983 21.9836V18.8021L146.674 19.2321H136.89V9.27209H149.94L153.779 10.1463L153.278 6.89316H133.094L133.681 10.6909V30.8544L133.094 34.6521Z" fill="#AB9066"/>
<path d="M158.077 34.7238H162.632L161.916 30.9118V23.1731H168.649L175.467 31.7717L176.628 34.7955H181.77L172.072 22.7862C177.215 22.1986 180.023 19.3611 180.023 15.0475C180.023 9.917 176.885 7.02219 170.454 7.02219H158.077L158.664 10.8342V30.8545L158.077 34.7238ZM161.844 9.25781H170.024C174.536 9.25781 176.757 11.3071 176.757 14.9902C176.757 18.6732 173.963 20.7225 169.451 20.7225H161.844V9.25781Z" fill="#AB9066"/>
<path d="M217.554 6.89316L217.01 10.6909L210.363 31.2271L204.132 10.6909L203.673 6.89316H199.376L200.464 10.7768L194.104 31.2271L187.457 10.6909L186.913 6.89316H182.658L192.056 34.6521H195.651L202.083 14.2592L208.401 34.6521H211.867L221.193 6.89316H217.554Z" fill="#AB9066"/>
<path d="M234.558 19.0601C228.456 17.3547 226.865 15.807 226.865 13.0411C226.865 10.2752 229.587 8.4839 234.028 8.4839C235.927 8.47677 237.816 8.76195 239.629 9.32941L243.769 11.5794L243.182 7.81034C240.177 6.72513 237.008 6.16286 233.813 6.14795C227.209 6.14795 223.499 9.01413 223.499 13.3134C223.499 17.6127 226.092 19.834 233.197 21.7973C239.257 23.474 241.305 25.0218 241.305 28.1173C241.305 31.2127 238.784 33.1331 233.655 33.1331C231.552 33.1321 229.463 32.7934 227.467 32.1299L223.241 29.7366L223.829 33.6346C227.049 34.7882 230.436 35.4078 233.856 35.469C240.875 35.469 244.686 32.4595 244.686 27.8163C244.628 23.3307 241.749 21.0235 234.558 19.0601Z" fill="#AB9066"/>
<path d="M248.31 10.3182L252.364 9.31508H265.572L247.766 34.1935V34.6521H269.54L270.041 31.2271L265.987 32.2302H252.693L270.542 7.35175V6.89316H248.811L248.31 10.3182Z" fill="#AB9066"/>
<path d="M278.02 32.2732V21.568H287.804L291.099 21.9836V18.8021L287.804 19.2321H278.02V9.27209H291.056L294.909 10.1463L294.408 6.89316H274.224L274.811 10.6909V30.8544L274.224 34.6521H294.565L295.081 31.399L291.228 32.2732H278.02Z" fill="#AB9066"/>
<path d="M319.305 25.3801V31.571C316.886 32.4713 314.323 32.9229 311.741 32.9038C304.966 32.9038 300.625 28.6045 300.625 20.6079C300.625 12.6112 305.309 8.65588 311.784 8.65588C313.716 8.62683 315.642 8.85331 317.514 9.32944L321.654 11.5794L321.11 7.81036C318.076 6.72501 314.877 6.177 311.655 6.19096C303.261 6.19096 297.33 11.1638 297.33 20.6079C297.33 30.0519 302.96 35.3257 311.655 35.3257C315.286 35.3624 318.887 34.6653 322.242 33.2764V21.568H317.944L319.305 25.3801Z" fill="#AB9066"/>
<path d="M340.205 6.14795C331.968 6.14795 326.41 11.5794 326.41 20.7368C326.41 29.8943 332.14 35.4547 340.205 35.4547C348.27 35.4547 353.986 29.8943 353.986 20.7368C353.986 11.5794 348.399 6.14795 340.205 6.14795ZM340.205 32.9038C334.146 32.9038 329.877 28.6045 329.877 20.7368C329.877 12.8691 334.174 8.65586 340.248 8.65586C346.322 8.65586 350.605 12.9551 350.605 20.7368C350.605 28.5185 346.222 32.9038 340.162 32.9038H340.205Z" fill="#AB9066"/>
<path d="M126.533 42.7205H120.889L119.929 46.3175L111.95 66.3808L103.928 46.3175L102.882 42.7205H97.1094L97.6967 46.5325V66.6817L97.1094 70.4794H100.963L100.418 66.6817V45.2714L110.317 70.4794H112.91L122.98 45.3144V66.6817L122.436 70.4794H126.533L125.989 66.6817V46.5325L126.533 42.7205Z" fill="#AB9066"/>
<path d="M139.726 42.7204L140.614 44.5261L129.541 70.5511H133.38L134.097 66.954L135.529 63.6436H149.854L151.287 66.954L151.989 70.5511H156.286L144.54 42.7778L139.726 42.7204ZM136.518 61.1644L142.692 46.6614L148.794 61.1644H136.518Z" fill="#AB9066"/>
<path d="M168.949 46.5325V62.9127C168.949 66.5098 167.144 68.4014 163.85 68.4014C163.046 68.3878 162.25 68.2325 161.5 67.9428L157.403 64.8187V68.8314C159.381 70.1674 161.707 70.8948 164.093 70.9237C169.236 70.9237 172.158 67.7422 172.158 62.5115V46.5898L172.702 42.7778H168.319L168.949 46.5325Z" fill="#AB9066"/>
<path d="M184.821 42.7204L185.695 44.5261L174.622 70.5511H178.504L179.206 66.954L180.639 63.6436H194.964L196.396 66.954L197.098 70.5511H201.396L189.649 42.7778L184.821 42.7204ZM181.613 61.1644L187.744 46.6614L193.846 61.1644H181.613Z" fill="#AB9066"/>
<path d="M225.949 42.9211H223.084C222.515 45.1033 221.243 47.0365 219.463 48.4204C217.683 49.8043 215.496 50.5613 213.242 50.5738V52.8381C215.082 52.8303 216.897 52.4165 218.559 51.6263C220.22 50.8361 221.687 49.6889 222.855 48.2665V66.8967L222.11 70.6514H226.565L225.977 66.8967L225.949 42.9211Z" fill="#AB9066"/>
<path d="M244.056 42.9211H241.191C240.625 45.1021 239.355 47.035 237.578 48.419C235.8 49.8031 233.616 50.5606 231.364 50.5738V52.8381C233.201 52.8312 235.015 52.4177 236.674 51.6273C238.333 50.837 239.797 49.6893 240.961 48.2665V66.8967L240.216 70.6514H244.671L244.099 66.8967L244.056 42.9211Z" fill="#AB9066"/>
<path d="M38.477 45.515C42.3537 45.515 45.4963 42.371 45.4963 38.4928C45.4963 34.6146 42.3537 31.4707 38.477 31.4707C34.6004 31.4707 31.4578 34.6146 31.4578 38.4928C31.4578 42.371 34.6004 45.515 38.477 45.515Z" fill="#AB9066"/>
<path d="M45.6109 10.8915L45.3101 11.0348C45.1625 11.1017 45.0011 11.1324 44.8393 11.1243C44.6775 11.1162 44.52 11.0695 44.3799 10.9882C44.2397 10.9069 44.121 10.7933 44.0337 10.6568C43.9463 10.5203 43.8928 10.365 43.8776 10.2036C43.4478 3.53975 40.3393 0.945857 39.0644 0.171988C38.8999 0.0734988 38.7117 0.0214539 38.52 0.0214539C38.3283 0.0214539 38.1402 0.0734988 37.9757 0.171988C36.7007 0.960188 33.5922 3.55408 33.1625 10.2036C33.1473 10.365 33.0937 10.5203 33.0064 10.6568C32.919 10.7933 32.8003 10.9069 32.6602 10.9882C32.52 11.0695 32.3625 11.1162 32.2007 11.1243C32.0389 11.1324 31.8775 11.1017 31.73 11.0348L31.4721 10.9202C31.3463 10.8487 31.2066 10.8053 31.0625 10.7929C30.9184 10.7806 30.7733 10.7996 30.6373 10.8486C30.5012 10.8976 30.3773 10.9755 30.2742 11.0769C30.171 11.1783 30.091 11.3008 30.0396 11.4361C27.4181 18.2719 31.7586 26.3402 35.3542 26.3402C36.3213 26.2711 37.2222 25.8231 37.8611 25.0934C38.0516 24.9044 38.309 24.7983 38.5773 24.7983C38.8456 24.7983 39.1031 24.9044 39.2936 25.0934C39.9325 25.8231 40.8333 26.2711 41.8005 26.3402C45.396 26.3402 49.7365 18.2719 47.115 11.4361C47.0668 11.2897 46.9859 11.1562 46.8785 11.0457C46.7712 10.9352 46.6401 10.8505 46.4953 10.7981C46.3504 10.7456 46.1956 10.7268 46.0424 10.743C45.8892 10.7591 45.7416 10.8099 45.6109 10.8915Z" fill="#AB9066"/>
<path d="M44.8658 30.2955C45.5821 29.3784 46.2984 28.4325 46.9 27.4294C47.5017 26.4262 48.132 25.509 48.6763 24.5632C49.7736 22.6557 50.589 20.5994 51.0972 18.4582C51.3341 17.4285 51.459 16.3763 51.4697 15.3197C51.4782 14.2632 51.3919 13.2081 51.2119 12.167C50.8282 10.0022 49.9561 7.95348 48.662 6.17659C48.647 6.1645 48.635 6.14926 48.6267 6.1319C48.6184 6.11454 48.6141 6.09555 48.6141 6.07631C48.6141 6.05708 48.6184 6.03808 48.6267 6.02073C48.635 6.00337 48.647 5.98808 48.662 5.97598C48.6816 5.96466 48.7038 5.95871 48.7265 5.95871C48.7491 5.95871 48.7713 5.96466 48.7909 5.97598C49.3728 6.19725 49.9147 6.51187 50.3953 6.90749C50.8924 7.29484 51.3441 7.73714 51.7419 8.22595C52.5384 9.2228 53.1409 10.3603 53.5182 11.5794C53.8955 12.7949 54.084 14.0613 54.0769 15.3341C54.0662 16.6025 53.8928 17.8644 53.5612 19.0888C53.2364 20.2913 52.78 21.4544 52.2003 22.5569C51.6324 23.6319 50.9759 24.6577 50.2377 25.6237C48.7893 27.5327 47.0259 29.1805 45.0234 30.4962C44.9967 30.5224 44.9607 30.5371 44.9232 30.5371C44.8857 30.5371 44.8497 30.5224 44.8229 30.4962C44.809 30.4722 44.8018 30.445 44.8018 30.4173C44.8018 30.3897 44.809 30.3625 44.8229 30.3385L44.8658 30.2955Z" fill="#AB9066"/>
<path d="M54.4493 22.3276C54.9507 21.4821 55.495 20.6795 56.0537 19.8913C56.6124 19.1031 57.214 18.3436 57.8157 17.5984C59.0333 16.1653 60.3226 14.7322 61.6405 13.2991C62.9697 11.9264 64.3707 10.6253 65.8377 9.40107C66.5826 8.78484 67.2702 8.2116 68.144 7.6527C68.9444 7.0818 69.7819 6.56477 70.6509 6.10498C70.6791 6.08168 70.7146 6.06894 70.7512 6.06894C70.7878 6.06894 70.8232 6.08168 70.8515 6.10498C70.8657 6.1468 70.8657 6.19213 70.8515 6.23395C70.3919 7.10328 69.875 7.9411 69.3043 8.74186C68.7457 9.53006 68.1727 10.304 67.5567 11.0492C66.332 12.5203 65.0264 13.9221 63.646 15.2481C62.2851 16.5666 60.8669 17.8563 59.3485 19.0601C58.6036 19.6764 57.83 20.2639 57.0565 20.8228C56.2678 21.4037 55.4503 21.9442 54.6069 22.4422C54.5809 22.4644 54.5479 22.4766 54.5138 22.4766C54.4796 22.4766 54.4466 22.4644 54.4207 22.4422C54.416 22.4222 54.4161 22.4014 54.4211 22.3814C54.4261 22.3615 54.4357 22.343 54.4493 22.3276Z" fill="#AB9066"/>
<path d="M31.9018 30.4962C29.9022 29.1768 28.1393 27.5296 26.6874 25.6237C25.9492 24.6577 25.2928 23.6319 24.7249 22.5569C24.1452 21.4544 23.6888 20.2913 23.3641 19.0888C23.0324 17.8644 22.859 16.6026 22.8483 15.3341C22.8412 14.0613 23.0297 12.7949 23.407 11.5794C23.7843 10.3603 24.3868 9.2228 25.1833 8.22596C25.5811 7.73715 26.0328 7.29484 26.5299 6.90749C27.0106 6.51187 27.5525 6.19726 28.1343 5.97599C28.1685 5.96137 28.2071 5.96069 28.2419 5.97407C28.2767 5.98744 28.3049 6.01381 28.3205 6.04763C28.3359 6.08925 28.3359 6.13498 28.3205 6.1766C27.0264 7.95349 26.1544 10.0022 25.7707 12.167C25.5907 13.2081 25.5044 14.2632 25.5128 15.3197C25.5236 16.3763 25.6484 17.4285 25.8852 18.4582C26.3935 20.5994 27.2089 22.6557 28.3062 24.5632C28.8505 25.552 29.4522 26.5122 30.0825 27.4294C30.7128 28.3466 31.4004 29.3211 32.1166 30.2956C32.1429 30.3223 32.1576 30.3584 32.1576 30.3959C32.1576 30.4334 32.1429 30.4694 32.1166 30.4962C32.0875 30.5234 32.0491 30.5385 32.0092 30.5385C31.9693 30.5385 31.9309 30.5234 31.9018 30.4962Z" fill="#AB9066"/>
<path d="M22.3613 22.5282C21.518 22.0302 20.7004 21.4897 19.9118 20.9088C19.1382 20.3499 18.3647 19.7624 17.6341 19.1461C16.13 17.9423 14.7691 16.6526 13.3366 15.3341C11.9562 14.0081 10.6505 12.6063 9.42585 11.1352C8.80988 10.39 8.23688 9.61607 7.6782 8.82787C7.10713 8.03021 6.59484 7.19202 6.14541 6.31996C6.11916 6.29317 6.10449 6.25715 6.10449 6.21963C6.10449 6.18212 6.11916 6.14614 6.14541 6.11935C6.18721 6.10515 6.23253 6.10515 6.27433 6.11935C7.1433 6.57914 7.98078 7.09617 8.78121 7.66707C9.58341 8.22598 10.3427 8.79921 11.0876 9.41544C12.5545 10.6397 13.9555 11.9408 15.2848 13.3135C16.617 14.7465 17.892 16.108 19.1096 17.6127C19.7112 18.3579 20.2985 19.1175 20.8715 19.9057C21.4445 20.6939 21.9746 21.4964 22.4759 22.3419C22.5022 22.3687 22.5169 22.4047 22.5169 22.4422C22.5169 22.4797 22.5022 22.5158 22.4759 22.5426C22.4569 22.5483 22.4369 22.5499 22.4171 22.5475C22.3974 22.545 22.3784 22.5384 22.3613 22.5282Z" fill="#AB9066"/>
<path d="M31.343 66.1229L31.6439 65.9652C31.7914 65.8983 31.9528 65.8676 32.1146 65.8757C32.2764 65.8838 32.4339 65.9305 32.5741 66.0118C32.7142 66.0931 32.8329 66.2067 32.9203 66.3432C33.0076 66.4797 33.0612 66.6351 33.0764 66.7964C33.5061 73.4603 36.6146 76.0542 37.8896 76.8281C38.0518 76.9329 38.2408 76.9887 38.4339 76.9887C38.627 76.9887 38.8161 76.9329 38.9783 76.8281C40.2532 76.0399 43.3617 73.446 43.7915 66.7964C43.8067 66.6351 43.8602 66.4797 43.9476 66.3432C44.0349 66.2067 44.1536 66.0931 44.2938 66.0118C44.4339 65.9305 44.5914 65.8838 44.7532 65.8757C44.915 65.8676 45.0764 65.8983 45.224 65.9652L45.4818 66.0942C45.6081 66.1633 45.7476 66.2047 45.891 66.2158C46.0345 66.2269 46.1787 66.2075 46.3141 66.1587C46.4495 66.11 46.573 66.033 46.6765 65.9329C46.78 65.8329 46.861 65.712 46.9144 65.5783C49.5358 58.7424 45.1953 50.6598 41.5997 50.6598C40.6309 50.7341 39.7303 51.1872 39.0929 51.9209C38.9006 52.1066 38.6438 52.2103 38.3766 52.2103C38.1094 52.2103 37.8526 52.1066 37.6604 51.9209C37.0229 51.1872 36.1223 50.7341 35.1535 50.6598C31.5579 50.6598 27.2174 58.7424 29.8389 65.5783C29.8872 65.7246 29.968 65.8581 30.0754 65.9687C30.1828 66.0792 30.3138 66.1638 30.4587 66.2163C30.6035 66.2687 30.7584 66.2876 30.9116 66.2714C31.0648 66.2552 31.2123 66.2044 31.343 66.1229Z" fill="#AB9066"/>
<path d="M32.0881 46.7045C31.3718 47.6216 30.6555 48.5675 30.0539 49.5706C29.4522 50.5738 28.822 51.4766 28.2776 52.4368C27.182 54.345 26.3666 56.4011 25.8567 58.5418C25.6198 59.5763 25.4949 60.6334 25.4842 61.6946C25.4763 62.7511 25.5626 63.8062 25.742 64.8474C25.926 65.8959 26.2288 66.92 26.6445 67.8999C27.0717 68.9204 27.6252 69.8834 28.2919 70.7661C28.3182 70.7929 28.3329 70.8289 28.3329 70.8664C28.3329 70.9039 28.3182 70.9399 28.2919 70.9667C28.2695 70.977 28.245 70.9823 28.2203 70.9823C28.1956 70.9823 28.1712 70.977 28.1487 70.9667C27.5669 70.7455 27.025 70.4308 26.5443 70.0352C26.0436 69.6467 25.5915 69.1991 25.1977 68.7024C24.3977 67.7079 23.7948 66.5697 23.4214 65.349C23.044 64.1334 22.8556 62.8671 22.8627 61.5943C22.8755 60.326 23.0487 59.0644 23.3784 57.8396C23.7061 56.6426 24.1624 55.4846 24.7393 54.3858C25.3071 53.3062 25.9636 52.2757 26.7018 51.3047C28.1537 49.3988 29.9166 47.7515 31.9162 46.4322C31.9437 46.4189 31.9748 46.4148 32.0049 46.4205C32.0349 46.4262 32.0624 46.4414 32.0832 46.4638C32.104 46.4862 32.1171 46.5148 32.1205 46.5452C32.124 46.5756 32.1176 46.6063 32.1024 46.6328L32.0881 46.7045Z" fill="#AB9066"/>
<path d="M22.5046 54.6725C22.0032 55.5323 21.4589 56.3348 20.9002 57.123C20.3415 57.9112 19.7399 58.6708 19.1382 59.4016C17.9206 60.8347 16.6456 62.2678 15.3134 63.7009C13.988 65.0819 12.5867 66.3881 11.1162 67.6133C10.3713 68.2152 9.68371 68.8027 8.80988 69.3616C8.0092 69.9279 7.17172 70.4401 6.303 70.895C6.29097 70.9076 6.27651 70.9176 6.26051 70.9245C6.24451 70.9313 6.22729 70.9348 6.20989 70.9348C6.19249 70.9348 6.17527 70.9313 6.15926 70.9245C6.14326 70.9176 6.12881 70.9076 6.11677 70.895C6.10384 70.876 6.09692 70.8536 6.09692 70.8306C6.09692 70.8076 6.10384 70.7851 6.11677 70.7661C6.55965 69.8903 7.07224 69.0516 7.64956 68.2581C8.20824 67.4556 8.78124 66.6961 9.39721 65.9509C10.6182 64.4765 11.924 63.0744 13.3079 61.7519C14.7404 60.4191 16.087 59.1437 17.6054 57.9256C18.336 57.3237 19.1095 56.7361 19.8831 56.1629C20.6719 55.5867 21.4895 55.051 22.3327 54.5578C22.3587 54.5356 22.3917 54.5234 22.4258 54.5234C22.46 54.5234 22.493 54.5356 22.5189 54.5578C22.5256 54.5767 22.5278 54.5969 22.5253 54.6168C22.5228 54.6367 22.5157 54.6558 22.5046 54.6725Z" fill="#AB9066"/>
<path d="M45.0522 46.5038C47.0547 47.8194 48.8182 49.4672 50.2665 51.3763C51.0048 52.3473 51.6613 53.3779 52.2291 54.4575C52.8059 55.5562 53.2622 56.7142 53.5899 57.9112C53.9196 59.136 54.0929 60.3976 54.1056 61.6659C54.1128 62.9387 53.9243 64.2051 53.5469 65.4207C53.1735 66.6413 52.5706 67.7795 51.7707 68.7741C51.3769 69.2708 50.9248 69.7183 50.4241 70.1068C49.9434 70.5025 49.4015 70.8171 48.8197 71.0383C48.8019 71.0452 48.7828 71.0484 48.7637 71.0478C48.7446 71.0471 48.7258 71.0426 48.7085 71.0346C48.6911 71.0266 48.6756 71.0152 48.6627 71.0011C48.6498 70.987 48.6399 70.9704 48.6335 70.9524C48.6234 70.9324 48.6182 70.9103 48.6182 70.8879C48.6182 70.8655 48.6234 70.8434 48.6335 70.8234C49.3003 69.9407 49.8537 68.9778 50.2808 67.9572C50.6966 66.9773 50.9993 65.9532 51.1833 64.9047C51.3628 63.8635 51.4491 62.8084 51.4412 61.7519C51.4305 60.6906 51.3056 59.6336 51.0687 58.5991C50.5588 56.4585 49.7434 54.4024 48.6478 52.4941C48.1035 51.5053 47.5018 50.5451 46.8715 49.628C46.2412 48.7108 45.5536 47.7219 44.8373 46.7618C44.8248 46.7497 44.8148 46.7353 44.8079 46.7193C44.8011 46.7032 44.7976 46.686 44.7976 46.6686C44.7976 46.6512 44.8011 46.634 44.8079 46.618C44.8148 46.602 44.8248 46.5875 44.8373 46.5755C44.8414 46.5526 44.8516 46.5313 44.8667 46.5138C44.8819 46.4962 44.9015 46.4831 44.9235 46.4757C44.9455 46.4684 44.9691 46.4672 44.9917 46.4721C45.0144 46.4771 45.0353 46.488 45.0522 46.5038Z" fill="#AB9066"/>
<path d="M54.6356 54.4862C55.4787 54.9794 56.2963 55.5151 57.0851 56.0912C57.8587 56.6645 58.6322 57.2521 59.3771 57.854C60.8097 59.0721 62.2422 60.3475 63.6747 61.6803C65.0586 63.0028 66.3644 64.4048 67.5854 65.8792C68.2014 66.6244 68.7744 67.384 69.3331 68.1865C69.91 68.9831 70.4271 69.8214 70.8801 70.6944C70.8948 70.7287 70.8955 70.7673 70.8821 70.8021C70.8687 70.8369 70.8423 70.8651 70.8085 70.8807C70.7895 70.8937 70.767 70.9006 70.7441 70.9006C70.7211 70.9006 70.6986 70.8937 70.6796 70.8807C69.8109 70.4258 68.9734 69.9136 68.1727 69.3473C67.3705 68.7884 66.6113 68.2009 65.8664 67.599C64.3958 66.3738 62.9946 65.0676 61.6692 63.6866C60.3513 62.2535 59.062 60.8921 57.8444 59.3873C57.2427 58.6564 56.6554 57.8826 56.0824 57.1087C55.5094 56.3348 54.9794 55.518 54.478 54.6581C54.4654 54.6461 54.4554 54.6316 54.4486 54.6156C54.4418 54.5996 54.4382 54.5824 54.4382 54.565C54.4382 54.5476 54.4418 54.5304 54.4486 54.5143C54.4554 54.4983 54.4654 54.4839 54.478 54.4718C54.4884 54.4607 54.5013 54.4521 54.5155 54.4466C54.5298 54.4412 54.5451 54.4391 54.5603 54.4405C54.5755 54.4419 54.5902 54.4467 54.6032 54.4546C54.6163 54.4625 54.6273 54.4733 54.6356 54.4862Z" fill="#AB9066"/>
<path d="M10.9012 31.3704L11.0588 31.6713C11.1226 31.8202 11.1504 31.9821 11.14 32.1438C11.1297 32.3055 11.0814 32.4625 10.9991 32.602C10.9168 32.7416 10.8028 32.8598 10.6663 32.9471C10.5299 33.0343 10.3747 33.0882 10.2136 33.1044C3.55245 33.5343 0.959624 36.6441 0.186073 37.9196C0.0876243 38.0842 0.0356445 38.2723 0.0356445 38.4641C0.0356445 38.6559 0.0876243 38.8441 0.186073 39.0087C0.973949 40.2842 3.56678 43.394 10.2136 43.8096C10.3747 43.8257 10.5299 43.8797 10.6663 43.9669C10.8028 44.0542 10.9168 44.1724 10.9991 44.312C11.0814 44.4515 11.1297 44.6085 11.14 44.7702C11.1504 44.9319 11.1226 45.0937 11.0588 45.2427L10.9012 45.5436C10.8329 45.6717 10.7928 45.813 10.7836 45.958C10.7744 46.1029 10.7963 46.2482 10.8479 46.3839C10.8994 46.5197 10.9794 46.6428 11.0825 46.7451C11.1856 46.8473 11.3094 46.9263 11.4456 46.9767C18.2786 49.5993 26.3579 45.257 26.3579 41.6599C26.2836 40.6907 25.8307 39.7897 25.0973 39.152C24.9084 38.9615 24.8023 38.7039 24.8023 38.4355C24.8023 38.1671 24.9084 37.9095 25.0973 37.7189C25.8307 37.0813 26.2836 36.1803 26.3579 35.211C26.3579 31.5996 18.2786 27.2717 11.4456 29.8943C11.3034 29.9435 11.174 30.0237 11.0666 30.1291C10.9592 30.2344 10.8764 30.3623 10.8244 30.5035C10.7723 30.6447 10.7522 30.7957 10.7655 30.9456C10.7788 31.0955 10.8251 31.2405 10.9012 31.3704Z" fill="#AB9066"/>
<path d="M30.2688 32.1013C29.352 31.3847 28.4209 30.6682 27.4038 30.0806C26.3867 29.493 25.4842 28.8338 24.5388 28.3035C22.6269 27.2062 20.5667 26.3905 18.422 25.8816C17.3929 25.6439 16.341 25.519 15.2848 25.509C14.2285 25.494 13.1731 25.5804 12.1333 25.767C11.0869 25.9508 10.0637 26.2488 9.08211 26.6555C8.06157 27.088 7.0991 27.6464 6.21711 28.3179C6.19033 28.3441 6.15432 28.3589 6.11682 28.3589C6.07933 28.3589 6.04331 28.3441 6.01654 28.3179C6.00522 28.2983 5.99927 28.276 5.99927 28.2534C5.99927 28.2307 6.00522 28.2085 6.01654 28.1889C6.24182 27.6044 6.55588 27.0582 6.94765 26.5695C7.33891 26.0801 7.78067 25.6334 8.26557 25.2367C9.26144 24.4357 10.3984 23.8281 11.6176 23.4454C12.8385 23.0735 14.1089 22.8898 15.3851 22.9008C16.6535 22.9058 17.9156 23.0792 19.1383 23.4167C20.3377 23.7674 21.4953 24.248 22.5906 24.8498C23.6701 25.4094 24.6962 26.0666 25.6561 26.8131C27.5724 28.2577 29.225 30.0224 30.541 32.0296C30.5608 32.0566 30.5714 32.0892 30.5714 32.1227C30.5714 32.1562 30.5608 32.1889 30.541 32.2159C30.5184 32.2333 30.4907 32.2428 30.4622 32.2428C30.4337 32.2428 30.406 32.2333 30.3834 32.2159L30.2688 32.1013Z" fill="#AB9066"/>
<path d="M30.4837 45.0707C28.4739 48.0864 25.7404 50.55 22.5333 52.2362C21.4347 52.8091 20.2771 53.2608 19.081 53.5833C17.8573 53.9178 16.5962 54.096 15.3278 54.1135C14.0509 54.1196 12.7805 53.9312 11.5603 53.5546C10.3411 53.1719 9.20414 52.5644 8.20827 51.7633C7.71997 51.3703 7.27787 50.9232 6.8904 50.4305C6.49359 49.9452 6.17901 49.3982 5.95923 48.8111C5.95255 48.7942 5.94953 48.7761 5.95032 48.758C5.9511 48.7399 5.95567 48.7221 5.96378 48.7059C5.97189 48.6897 5.98333 48.6753 5.99736 48.6638C6.01138 48.6523 6.02768 48.6439 6.04518 48.6391C6.06518 48.629 6.08727 48.6238 6.10966 48.6238C6.13205 48.6238 6.15415 48.629 6.17414 48.6391C7.05649 49.3062 8.01901 49.8598 9.03915 50.2872C10.0203 50.6984 11.0434 51.0012 12.0903 51.19C13.1311 51.3695 14.1858 51.4559 15.2419 51.448C16.2975 51.4309 17.3487 51.306 18.379 51.0754C20.5219 50.5605 22.5812 49.7451 24.4958 48.6534C25.4699 48.1089 26.444 47.507 27.3608 46.8764C28.2776 46.2459 29.2517 45.558 30.2258 44.8414C30.2379 44.8288 30.2523 44.8189 30.2683 44.812C30.2843 44.8052 30.3015 44.8017 30.3189 44.8017C30.3363 44.8017 30.3536 44.8052 30.3696 44.812C30.3856 44.8189 30.4 44.8288 30.4121 44.8414C30.4379 44.8432 30.4627 44.8528 30.483 44.8689C30.5034 44.885 30.5184 44.9068 30.5261 44.9316C30.5339 44.9564 30.5339 44.9829 30.5264 45.0077C30.5188 45.0325 30.5039 45.0545 30.4837 45.0707Z" fill="#AB9066"/>
<path d="M66.0814 45.644L65.9239 45.343C65.8601 45.1941 65.8322 45.0322 65.8426 44.8705C65.853 44.7088 65.9013 44.5519 65.9836 44.4123C66.0659 44.2728 66.1799 44.1545 66.3164 44.0672C66.4528 43.98 66.6079 43.9261 66.769 43.9099C73.4302 43.4943 76.023 40.3845 76.7966 39.1091C76.895 38.9445 76.947 38.7563 76.947 38.5645C76.947 38.3727 76.895 38.1845 76.7966 38.0199C76.0087 36.7444 73.4159 33.6347 66.769 33.2047C66.6079 33.1886 66.4528 33.1347 66.3164 33.0474C66.1799 32.9601 66.0659 32.8419 65.9836 32.7024C65.9013 32.5628 65.853 32.4058 65.8426 32.2441C65.8322 32.0825 65.8601 31.9206 65.9239 31.7716L66.0814 31.4707C66.1498 31.3426 66.1899 31.2013 66.1991 31.0563C66.2083 30.9114 66.1864 30.7661 66.1348 30.6304C66.0832 30.4946 66.0032 30.3715 65.9001 30.2692C65.797 30.167 65.6733 30.088 65.5371 30.0376C58.7041 27.4151 50.6248 31.743 50.6248 35.3544C50.6991 36.3236 51.1519 37.2246 51.8853 37.8623C52.0743 38.0529 52.1803 38.3104 52.1803 38.5788C52.1803 38.8472 52.0743 39.1048 51.8853 39.2954C51.1519 39.9331 50.6991 40.834 50.6248 41.8033C50.6248 45.4003 58.7041 49.7426 65.5371 47.12C65.6792 47.0708 65.8087 46.9906 65.9161 46.8852C66.0235 46.7799 66.1062 46.652 66.1583 46.5108C66.2103 46.3696 66.2305 46.2186 66.2172 46.0687C66.2039 45.9188 66.1575 45.7738 66.0814 45.644Z" fill="#AB9066"/>
<path d="M46.7139 44.8988C47.6307 45.6153 48.5762 46.3318 49.5789 46.9337C50.5817 47.5356 51.4985 48.1662 52.4439 48.7108C54.3524 49.8047 56.4073 50.6203 58.5464 51.1327C59.5769 51.3626 60.628 51.4874 61.6836 51.5053C62.7397 51.5132 63.7943 51.4269 64.8351 51.2474C65.882 51.0585 66.9052 50.7558 67.8863 50.3445C68.9064 49.9172 69.869 49.3635 70.7513 48.6965C70.7795 48.6732 70.815 48.6604 70.8516 48.6604C70.8882 48.6604 70.9237 48.6732 70.9519 48.6965C70.962 48.7165 70.9672 48.7386 70.9672 48.761C70.9672 48.7834 70.962 48.8054 70.9519 48.8254C70.7321 49.4125 70.4175 49.9596 70.0207 50.4448C69.6333 50.9376 69.1911 51.3847 68.7028 51.7776C67.707 52.5787 66.5701 53.1863 65.3508 53.569C64.1306 53.9455 62.8602 54.134 61.5833 54.1279C60.3149 54.1103 59.0538 53.9322 57.8302 53.5976C56.634 53.2751 55.4764 52.8234 54.3778 52.2505C53.3013 51.6858 52.2756 51.0288 51.3122 50.2872C49.4032 48.829 47.752 47.0609 46.4274 45.0564C46.4076 45.0294 46.397 44.9967 46.397 44.9632C46.397 44.9297 46.4076 44.8971 46.4274 44.8701C46.45 44.8527 46.4777 44.8432 46.5062 44.8432C46.5347 44.8432 46.5624 44.8527 46.585 44.8701L46.7139 44.8988Z" fill="#AB9066"/>
<path d="M46.4704 31.9292C47.7907 29.9254 49.4426 28.1614 51.3553 26.7128C52.3151 25.9662 53.3413 25.3091 54.4208 24.7495C55.5161 24.1477 56.6737 23.6671 57.8732 23.3164C59.0959 22.9789 60.358 22.8054 61.6263 22.8005C62.9025 22.7895 64.1729 22.9731 65.3938 23.345C66.6131 23.7277 67.75 24.3353 68.7459 25.1364C69.2308 25.5331 69.6725 25.9798 70.0637 26.4692C70.4555 26.9578 70.7696 27.5041 70.9949 28.0886C71.0017 28.1064 71.0049 28.1255 71.0043 28.1446C71.0036 28.1637 70.9992 28.1825 70.9911 28.1998C70.9831 28.2172 70.9717 28.2328 70.9576 28.2457C70.9435 28.2585 70.927 28.2685 70.909 28.2749C70.889 28.285 70.8669 28.2902 70.8445 28.2902C70.8221 28.2902 70.8 28.285 70.78 28.2749C69.898 27.6034 68.9355 27.045 67.915 26.6125C66.9334 26.2058 65.9102 25.9078 64.8638 25.724C63.824 25.5374 62.7686 25.451 61.7123 25.466C60.6562 25.4768 59.6043 25.6017 58.5751 25.8386C56.434 26.3445 54.3781 27.1604 52.4726 28.2605C51.4873 28.8024 50.531 29.3956 49.6076 30.0376C48.6622 30.6682 47.7167 31.3417 46.7426 32.0583C46.7306 32.0708 46.7161 32.0808 46.7001 32.0876C46.6841 32.0945 46.6669 32.098 46.6495 32.098C46.6321 32.098 46.6149 32.0945 46.5989 32.0876C46.5829 32.0808 46.5684 32.0708 46.5564 32.0583C46.53 32.049 46.5074 32.0314 46.4919 32.0081C46.4764 31.9848 46.4688 31.9572 46.4704 31.9292Z" fill="#AB9066"/>
</svg>
